<svg width="16" height="16" viewBox="0 0 16 16" fill="none" xmlns="http://www.w3.org/2000/svg">
<path fill-rule="evenodd" clip-rule="evenodd" d="M9.46405 1.12089C10.1872 0.397732 11.1487 -0.000732422 12.1712 -0.000732422C14.2826 -0.000732422 15.9999 1.71662 16 3.82799C16 4.85049 15.6015 5.81197 14.8783 6.53513L11.5354 9.87803C10.8123 10.6012 9.85081 10.9996 8.82832 10.9996C7.80632 10.9996 6.84487 10.6017 6.12217 9.87948L7.53531 8.46439C8.22675 9.15484 9.42991 9.15434 10.1213 8.46389L13.4642 5.121C13.8094 4.77529 13.9999 4.31631 13.9999 3.82799C13.9999 2.81965 13.1795 1.99932 12.1712 1.99932C11.6829 1.99932 11.2239 2.18975 10.8782 2.53499L9.02105 4.39213C8.44251 4.16079 7.81321 4.03603 7.17099 4.03603C6.95497 4.03603 6.7435 4.06574 6.53218 4.09542C6.51564 4.09775 6.4991 4.10007 6.48256 4.10238L9.46405 1.12089ZM5.12103 13.464L6.96063 11.6244C7.54443 11.8692 8.17604 11.9996 8.82816 11.9996C9.01744 11.9996 9.20175 11.9741 9.38608 11.9486C9.41639 11.9445 9.44671 11.9403 9.47705 11.9362L6.53513 14.8781C5.81194 15.6013 4.85049 15.9997 3.82799 15.9997C1.71662 15.9997 -0.000732422 14.2824 -0.000732422 12.171C-0.000732422 11.1485 0.397701 10.1871 1.12089 9.4639L4.46382 6.121C5.91017 4.67468 8.43124 4.67515 9.87709 6.11954L8.46395 7.53464C7.77251 6.84419 6.56936 6.84469 5.87792 7.53513L2.53502 10.878C2.18979 11.2237 1.99935 11.6827 1.99935 12.171C1.99935 13.1794 2.81968 13.9997 3.82803 13.9997C4.31631 13.9997 4.77532 13.8093 5.12103 13.464Z" fill="black"/>
</svg>
