<svg width="21" height="15" viewBox="0 0 21 15" fill="none" xmlns="http://www.w3.org/2000/svg">
<path fill-rule="evenodd" clip-rule="evenodd" d="M2.48154 0.492676H19.2154C19.4901 0.492676 19.7474 0.555397 19.9801 0.65873L12.847 7.27577L12.8468 7.27592L12.8466 7.27618L10.8088 9.09295L1.71706 0.658583C1.94971 0.555323 2.20686 0.492676 2.48154 0.492676ZM14.1086 7.66614L20.8213 1.43914C20.9325 1.65489 20.9999 1.89342 20.9999 2.14809V13.184C20.9999 13.4389 20.9324 13.6774 20.821 13.8932L14.1086 7.66614ZM0.876103 1.43891C0.764796 1.65474 0.697266 1.8933 0.697266 2.14812V13.1841C0.697266 13.4387 0.764716 13.6773 0.875945 13.8931L7.58863 7.66609L0.876103 1.43891ZM11.2296 10.2634L13.2677 8.44643L19.9801 14.6735C19.7475 14.7768 19.4903 14.8394 19.2156 14.8394H2.48182C2.20706 14.8394 1.94975 14.7767 1.71706 14.6734L8.42986 8.44636L10.3886 10.2634C10.5047 10.3712 10.657 10.4251 10.8091 10.4251C10.9613 10.4251 11.1135 10.3712 11.2296 10.2634Z" fill="black"/>
</svg>
