<svg width="209" height="87" viewBox="0 0 209 87" fill="none" xmlns="http://www.w3.org/2000/svg">
<path d="M1 1H193V71H1V1Z" stroke="white" stroke-width="2"/>
<path d="M15 15H209V87H15V15Z" fill="white"/>
<path d="M71 52.5L54 64L54 41L71 52.5Z" fill="black"/>
<path d="M95.466 39.48H91.98V49H93.8V46.158H95.466C98.49 46.158 99.386 44.814 99.386 42.812C99.386 40.81 98.49 39.48 95.466 39.48ZM95.788 44.338H93.8V41.3H95.788C97.202 41.3 97.566 41.65 97.566 42.812C97.566 43.932 97.202 44.338 95.788 44.338ZM102.536 47.18V39.48H100.716V49H106.148V47.18H102.536ZM114.091 49H116.023L113.125 39.48H110.311L107.399 49H109.345L109.891 47.18H113.545L114.091 49ZM110.437 45.36L111.599 41.482H111.823L112.999 45.36H110.437ZM121.856 39.48L119.63 43.26H119.546L117.32 39.48H115.192L118.678 45.276L118.706 49H120.498V45.276L123.984 39.48H121.856ZM132.655 39.48H130.709L133.621 49H136.435L139.333 39.48H137.401L135.133 46.998H134.909L132.655 39.48ZM140.529 49H142.349V39.48H140.529V49ZM147.375 39.48H144.029V49H147.375C150.539 49 151.855 47.376 151.855 44.24C151.855 41.09 150.539 39.48 147.375 39.48ZM147.375 47.18H145.849V41.3H147.375C149.559 41.3 150.035 41.93 150.035 44.24C150.035 46.494 149.559 47.18 147.375 47.18ZM159.529 41.3V39.48H153.257V49H159.529V47.18H154.937V45.08H158.549V43.26H154.937V41.3H159.529ZM165.022 49C167.934 49 169.67 46.9 169.67 44.24C169.67 41.58 167.934 39.48 165.022 39.48C162.11 39.48 160.374 41.58 160.374 44.24C160.374 46.9 162.11 49 165.022 49ZM165.022 47.18C163.398 47.18 162.194 46.452 162.194 44.24C162.194 42.014 163.398 41.3 165.022 41.3C166.646 41.3 167.85 42.014 167.85 44.24C167.85 46.452 166.646 47.18 165.022 47.18Z" fill="black"/>
<path d="M96.628 63.584C97.93 62.492 98.392 61.722 98.392 60.42C98.392 58.922 97.594 57.48 95.116 57.48C92.638 57.48 91.84 58.922 91.84 60.7H93.66C93.66 59.72 93.954 59.3 95.116 59.3C96.278 59.3 96.572 59.692 96.572 60.42C96.572 61.344 95.928 61.848 94.598 62.898L91.84 65.18V67H98.252V65.18H94.794L96.628 63.584ZM100.07 61.26V63.08H101.89V61.26H100.07ZM100.07 65.18V67H101.89V65.18H100.07ZM107.77 61.4L110.122 59.3V57.48H103.99V59.3H107.574L105.516 61.26L106.146 62.66H107.098C108.078 62.66 108.582 62.968 108.582 63.92C108.582 64.83 108.19 65.18 106.986 65.18C105.796 65.18 105.39 64.83 105.39 63.92H103.57C103.57 65.558 104.578 67 106.986 67C109.394 67 110.402 65.558 110.402 64.06C110.402 62.142 109.03 61.26 107.77 61.4ZM115.833 57.48C112.711 57.48 111.815 59.58 111.815 62.24C111.815 64.9 112.711 67 115.833 67C118.955 67 119.851 64.9 119.851 62.24C119.851 59.58 118.955 57.48 115.833 57.48ZM118.031 62.24C118.031 62.926 117.989 63.472 117.863 63.906L114.727 59.468C115.021 59.356 115.385 59.3 115.833 59.3C117.625 59.3 118.031 60.126 118.031 62.24ZM113.635 62.24C113.635 61.554 113.677 61.008 113.789 60.574L116.939 65.012C116.645 65.124 116.281 65.18 115.833 65.18C114.027 65.18 113.635 64.354 113.635 62.24Z" fill="black"/>
</svg>
