<svg width="33" height="23" viewBox="0 0 33 23" fill="none" xmlns="http://www.w3.org/2000/svg">
<path d="M1.72031 11.9666V0H13.6129V11.9666C13.6129 14.947 13.1741 17.24 12.2965 18.8456C11.4189 20.4511 10.1324 21.5449 8.43699 22.127C6.74161 22.709 4.50272 23 1.72031 23H0V17.2651C1.62557 17.2651 2.76745 17.0242 3.42566 16.5425C4.08386 16.0609 4.41296 15.1728 4.41296 13.8783V11.9666H1.72031Z" fill="black"/>
<path d="M21.1074 11.9666V0H33V11.9666C33 14.947 32.5612 17.24 31.6836 18.8456C30.806 20.4511 29.5195 21.5449 27.8241 22.127C26.1287 22.709 23.8898 23 21.1074 23H19.3871V17.2651C21.0127 17.2651 22.1546 17.0242 22.8128 16.5425C23.471 16.0609 23.8001 15.1728 23.8001 13.8783V11.9666H21.1074Z" fill="black"/>
</svg>
