<svg width="21" height="17" viewBox="0 0 21 17" fill="none" xmlns="http://www.w3.org/2000/svg">
<path d="M6.60433 16.9999C14.5292 16.9999 18.863 10.4601 18.863 4.78922C18.863 4.60348 18.8592 4.4185 18.8508 4.23455C19.692 3.62872 20.4231 2.87271 21 2.01219C20.228 2.35412 19.3971 2.58399 18.5258 2.68799C19.4152 2.15648 20.0982 1.31605 20.4203 0.314173C19.5879 0.805771 18.6659 1.16293 17.6845 1.35583C16.8983 0.52166 15.7788 0 14.5394 0C12.1602 0 10.2306 1.92188 10.2306 4.29097C10.2306 4.62791 10.2685 4.95539 10.3424 5.26956C6.76152 5.09009 3.58611 3.38247 1.46134 0.785688C1.09147 1.41979 0.878034 2.15661 0.878034 2.94281C0.878034 4.43155 1.63869 5.74619 2.79527 6.51499C2.08843 6.49337 1.42448 6.30009 0.844002 5.97837C0.84336 5.9964 0.84336 6.01393 0.84336 6.03312C0.84336 8.11157 2.32845 9.84694 4.30014 10.2402C3.93799 10.3383 3.55696 10.3911 3.16398 10.3911C2.88684 10.3911 2.61664 10.364 2.35414 10.3137C2.90264 12.0189 4.49329 13.2597 6.37907 13.2945C4.90438 14.4458 3.04673 15.1316 1.02778 15.1316C0.680518 15.1316 0.337241 15.1118 0 15.0721C1.90684 16.2895 4.17108 17 6.60445 17" fill="black"/>
</svg>
