<svg width="26" height="21" viewBox="0 0 26 21" fill="none" xmlns="http://www.w3.org/2000/svg">
<path d="M25.4712 20.7052V20.7598H25.5198C25.5305 20.7598 25.5397 20.7571 25.5463 20.7529C25.5525 20.7487 25.556 20.7412 25.556 20.7322C25.556 20.7232 25.5525 20.7163 25.5463 20.7121C25.5397 20.7073 25.5305 20.7052 25.5198 20.7052H25.4712ZM25.5203 20.667C25.5453 20.667 25.5647 20.6728 25.5785 20.6845C25.5923 20.6961 25.599 20.7121 25.599 20.7322C25.599 20.7492 25.5938 20.763 25.5826 20.7741C25.5719 20.7847 25.5565 20.7916 25.5361 20.7943L25.6005 20.8712H25.5504L25.4906 20.7948H25.4712V20.8712H25.4293V20.667H25.5203ZM25.5075 20.9417C25.5305 20.9417 25.552 20.9369 25.5714 20.9279C25.5913 20.9189 25.6087 20.9067 25.6235 20.8913C25.6383 20.876 25.65 20.8579 25.6587 20.8367C25.6669 20.816 25.6715 20.7937 25.6715 20.7699C25.6715 20.746 25.6669 20.7237 25.6587 20.703C25.65 20.6823 25.6383 20.6638 25.6235 20.6484C25.6087 20.633 25.5913 20.6208 25.5714 20.6118C25.552 20.6033 25.5305 20.5991 25.5075 20.5991C25.4845 20.5991 25.4626 20.6033 25.4426 20.6118C25.4222 20.6208 25.4043 20.633 25.3895 20.6484C25.3747 20.6638 25.3629 20.6823 25.3548 20.703C25.3461 20.7237 25.342 20.746 25.342 20.7699C25.342 20.7937 25.3461 20.816 25.3548 20.8367C25.3629 20.8579 25.3747 20.876 25.3895 20.8913C25.4043 20.9067 25.4222 20.9189 25.4426 20.9279C25.4626 20.9369 25.4845 20.9417 25.5075 20.9417ZM25.5075 20.5497C25.5376 20.5497 25.5652 20.5556 25.5918 20.5672C25.6179 20.5784 25.6403 20.5943 25.6603 20.6145C25.6797 20.6341 25.695 20.6574 25.7062 20.6845C25.7175 20.711 25.7231 20.7396 25.7231 20.7699C25.7231 20.8001 25.7175 20.8287 25.7062 20.8553C25.695 20.8818 25.6797 20.9051 25.6603 20.9253C25.6403 20.9449 25.6179 20.9608 25.5918 20.9725C25.5652 20.9842 25.5376 20.99 25.5075 20.99C25.4769 20.99 25.4488 20.9842 25.4222 20.9725C25.3956 20.9608 25.3726 20.9449 25.3532 20.9253C25.3338 20.9051 25.3185 20.8818 25.3073 20.8553C25.296 20.8287 25.2904 20.8001 25.2904 20.7699C25.2904 20.7396 25.296 20.711 25.3073 20.6845C25.3185 20.6574 25.3338 20.6341 25.3532 20.6145C25.3726 20.5943 25.3956 20.5784 25.4222 20.5672C25.4488 20.5556 25.4769 20.5497 25.5075 20.5497ZM5.60423 19.7631C5.60423 19.3738 5.84995 19.054 6.25148 19.054C6.63513 19.054 6.89413 19.36 6.89413 19.7631C6.89413 20.1663 6.63513 20.4723 6.25148 20.4723C5.84995 20.4723 5.60423 20.1525 5.60423 19.7631ZM7.33142 19.7631V18.6556H6.86757V18.9246C6.72044 18.7251 6.4972 18.5999 6.19376 18.5999C5.59555 18.5999 5.12659 19.0869 5.12659 19.7631C5.12659 20.4399 5.59555 20.9263 6.19376 20.9263C6.4972 20.9263 6.72044 20.8012 6.86757 20.6017V20.8706H7.33142V19.7631ZM23.0064 19.7631C23.0064 19.3738 23.2521 19.054 23.6536 19.054C24.0378 19.054 24.2963 19.36 24.2963 19.7631C24.2963 20.1663 24.0378 20.4723 23.6536 20.4723C23.2521 20.4723 23.0064 20.1525 23.0064 19.7631ZM24.7341 19.7631V17.7661H24.2697V18.9246C24.1226 18.7251 23.8993 18.5999 23.5959 18.5999C22.9977 18.5999 22.5287 19.0869 22.5287 19.7631C22.5287 20.4399 22.9977 20.9263 23.5959 20.9263C23.8993 20.9263 24.1226 20.8012 24.2697 20.6017V20.8706H24.7341V19.7631ZM13.0892 19.0312C13.3881 19.0312 13.5802 19.2258 13.6292 19.5685H12.5222C12.5717 19.2486 12.7587 19.0312 13.0892 19.0312ZM13.0984 18.5999C12.4731 18.5999 12.0359 19.0725 12.0359 19.7631C12.0359 20.4675 12.491 20.9263 13.1296 20.9263C13.4509 20.9263 13.7452 20.8431 14.0042 20.616L13.7768 20.2591C13.598 20.4071 13.3702 20.4909 13.1561 20.4909C12.8573 20.4909 12.585 20.3471 12.5181 19.9483H14.1022C14.1068 19.8883 14.1114 19.8278 14.1114 19.7631C14.1068 19.0725 13.6961 18.5999 13.0984 18.5999ZM18.6994 19.7631C18.6994 19.3738 18.9451 19.054 19.3466 19.054C19.7303 19.054 19.9893 19.36 19.9893 19.7631C19.9893 20.1663 19.7303 20.4723 19.3466 20.4723C18.9451 20.4723 18.6994 20.1525 18.6994 19.7631ZM20.4266 19.7631V18.6556H19.9627V18.9246C19.8151 18.7251 19.5924 18.5999 19.2889 18.5999C18.6907 18.5999 18.2217 19.0869 18.2217 19.7631C18.2217 20.4399 18.6907 20.9263 19.2889 20.9263C19.5924 20.9263 19.8151 20.8012 19.9627 20.6017V20.8706H20.4266V19.7631ZM16.0797 19.7631C16.0797 20.4352 16.5303 20.9263 17.2179 20.9263C17.5393 20.9263 17.7533 20.8521 17.9852 20.6622L17.7625 20.2729C17.5883 20.4028 17.4054 20.4723 17.2041 20.4723C16.8338 20.4675 16.5615 20.1896 16.5615 19.7631C16.5615 19.3367 16.8338 19.0587 17.2041 19.054C17.4054 19.054 17.5883 19.1235 17.7625 19.2534L17.9852 18.8641C17.7533 18.6742 17.5393 18.5999 17.2179 18.5999C16.5303 18.5999 16.0797 19.0911 16.0797 19.7631ZM22.0603 18.5999C21.7926 18.5999 21.6184 18.7299 21.4978 18.9246V18.6556H21.0381V20.8706H21.5024V19.6289C21.5024 19.2624 21.6542 19.0587 21.9576 19.0587C22.0516 19.0587 22.1497 19.0725 22.2478 19.1144L22.3908 18.6604C22.2881 18.6185 22.1543 18.5999 22.0603 18.5999ZM9.62566 18.8317C9.40241 18.679 9.09488 18.5999 8.75568 18.5999C8.21519 18.5999 7.86731 18.8689 7.86731 19.3091C7.86731 19.6703 8.12631 19.8931 8.60344 19.9626L8.8226 19.9949C9.077 20.0321 9.19705 20.1015 9.19705 20.2267C9.19705 20.398 9.02745 20.4956 8.71072 20.4956C8.3894 20.4956 8.15747 20.389 8.00115 20.2639L7.7825 20.6389C8.03691 20.8335 8.35823 20.9263 8.70612 20.9263C9.32221 20.9263 9.67929 20.6251 9.67929 20.2034C9.67929 19.8141 9.39833 19.6104 8.93396 19.5409L8.71532 19.508C8.51455 19.4804 8.35364 19.4391 8.35364 19.2905C8.35364 19.1282 8.50536 19.0312 8.75976 19.0312C9.03205 19.0312 9.29565 19.1378 9.42489 19.2211L9.62566 18.8317ZM15.6108 18.5999C15.3431 18.5999 15.1689 18.7299 15.0489 18.9246V18.6556H14.5891V20.8706H15.0529V19.6289C15.0529 19.2624 15.2047 19.0587 15.5081 19.0587C15.6021 19.0587 15.7002 19.0725 15.7983 19.1144L15.9413 18.6604C15.8386 18.6185 15.7048 18.5999 15.6108 18.5999ZM11.6522 18.6556H10.8936V17.9836H10.4246V18.6556H9.99193V19.0959H10.4246V20.1063C10.4246 20.6203 10.6167 20.9263 11.1654 20.9263C11.3666 20.9263 11.5986 20.8616 11.7457 20.755L11.6118 20.3424C11.4734 20.4256 11.3217 20.4675 11.2011 20.4675C10.9692 20.4675 10.8936 20.319 10.8936 20.0968V19.0959H11.6522V18.6556ZM4.71638 20.8706V19.4804C4.71638 18.9569 4.39505 18.6047 3.87705 18.5999C3.60476 18.5952 3.3238 18.6832 3.12712 18.994C2.97999 18.7485 2.74807 18.5999 2.42214 18.5999C2.1943 18.5999 1.97157 18.6694 1.79737 18.9288V18.6556H1.33301V20.8706H1.80146V19.6427C1.80146 19.2582 2.00682 19.054 2.32406 19.054C2.6321 19.054 2.78791 19.2624 2.78791 19.638V20.8706H3.25687V19.6427C3.25687 19.2582 3.47092 19.054 3.77896 19.054C4.09569 19.054 4.24741 19.2624 4.24741 19.638V20.8706H4.71638Z" fill="#231F20"/>
<path d="M25.756 13.5042V13.1806H25.6748L25.5808 13.4028L25.4873 13.1806H25.4055V13.5042H25.4633V13.2602L25.5511 13.4707H25.6109L25.6988 13.2596V13.5042H25.756ZM25.2405 13.5042V13.2358H25.3447V13.1811H25.0791V13.2358H25.1833V13.5042H25.2405Z" fill="#F79410"/>
<path d="M16.5204 14.8961H9.49023V1.77783H16.5204V14.8961Z" fill="#FF5F00"/>
<path d="M9.94072 8.3358C9.94072 5.6747 11.1407 3.30427 13.0094 1.77667C11.6429 0.659616 9.91824 -0.00711632 8.04393 -0.00711632C3.60667 -0.00711632 0.00976562 3.72807 0.00976562 8.3358C0.00976562 12.9435 3.60667 16.6787 8.04393 16.6787C9.91824 16.6787 11.6429 16.012 13.0094 14.8949C11.1407 13.3673 9.94072 10.9969 9.94072 8.3358Z" fill="#EB001B"/>
<path d="M26.0021 8.3358C26.0021 12.9435 22.4052 16.6787 17.9679 16.6787C16.0936 16.6787 14.369 16.012 13.002 14.8949C14.8712 13.3673 16.0712 10.9969 16.0712 8.3358C16.0712 5.6747 14.8712 3.30427 13.002 1.77667C14.369 0.659616 16.0936 -0.00711632 17.9679 -0.00711632C22.4052 -0.00711632 26.0021 3.72807 26.0021 8.3358Z" fill="#F79E1B"/>
</svg>
