<svg width="36" height="10" viewBox="0 0 36 10" fill="none" xmlns="http://www.w3.org/2000/svg">
<path d="M6.76748 0.994316C6.35129 0.496418 5.59897 0.282959 4.63657 0.282959H1.84334C1.64643 0.282959 1.47911 0.433268 1.44828 0.637072L0.285246 8.37928C0.262124 8.53194 0.374748 8.67024 0.522179 8.67024H2.2466L2.67969 5.78697L2.66627 5.87726C2.6971 5.67346 2.86317 5.52315 3.05983 5.52315H3.87928C5.48908 5.52315 6.74958 4.83685 7.11778 2.85152C7.12872 2.7928 7.13817 2.73565 7.14637 2.67981C7.09988 2.65398 7.09988 2.65398 7.14637 2.67981C7.25602 1.94601 7.14558 1.44655 6.76748 0.994316Z" fill="#003087"/>
<path d="M24.5839 4.65527H23.6558C23.567 4.65527 23.484 4.70146 23.4343 4.7787L22.1539 6.75776L21.6114 4.85594C21.5773 4.73695 21.4729 4.65527 21.3546 4.65527H20.4424C20.3322 4.65527 20.2547 4.76904 20.2902 4.87838L21.3121 8.02704L20.3509 9.45053C20.2756 9.56222 20.3517 9.7167 20.4822 9.7167H21.4093C21.497 9.7167 21.5793 9.67156 21.6295 9.59588L24.7159 4.92014C24.7897 4.80819 24.7136 4.65527 24.5839 4.65527ZM18.3792 6.54167C18.2899 7.09541 17.8712 7.46727 17.337 7.46727C17.0692 7.46727 16.8546 7.37672 16.7169 7.20553C16.5804 7.03591 16.529 6.79401 16.5722 6.52497C16.6553 5.97592 17.0809 5.59232 17.607 5.59232C17.8693 5.59232 18.0821 5.68366 18.2225 5.85641C18.364 6.03046 18.4197 6.27367 18.3792 6.54167ZM19.666 4.65524H18.7427C18.6636 4.65524 18.5962 4.71552 18.5838 4.79772L18.5433 5.06859L18.4789 4.97047C18.2787 4.66594 17.833 4.56391 17.3879 4.56391C16.3679 4.56391 15.4964 5.37547 15.3269 6.51348C15.2386 7.08132 15.3639 7.62384 15.6707 8.00248C15.9524 8.35033 16.3544 8.49516 16.8335 8.49516C17.6559 8.49516 18.1119 7.94089 18.1119 7.94089L18.0706 8.2102C18.0552 8.31249 18.1306 8.40513 18.2295 8.40513H19.0609C19.1929 8.40513 19.305 8.30466 19.3257 8.16792L19.8249 4.85017C19.8403 4.74788 19.7647 4.65524 19.666 4.65524ZM14.125 4.67852C14.0196 5.40501 13.491 5.40501 12.9796 5.40501H12.6887L12.8928 4.04858C12.905 3.96664 12.9724 3.90636 13.0515 3.90636H13.185C13.533 3.90636 13.8617 3.90636 14.0313 4.11434C14.1327 4.23881 14.1633 4.42357 14.125 4.67852ZM13.9025 2.78296H11.9742C11.8422 2.78296 11.73 2.88369 11.7094 3.02043L10.9297 8.21025C10.9143 8.31254 10.9897 8.40518 11.0884 8.40518H12.0092C12.141 8.40518 12.2531 8.30445 12.2738 8.16798L12.4844 6.7677C12.5047 6.63096 12.6171 6.53024 12.7489 6.53024H13.359C14.6292 6.53024 15.3624 5.88516 15.5538 4.60623C15.6401 4.04727 15.5573 3.60783 15.3079 3.30017C15.0337 2.96197 14.5476 2.78296 13.9025 2.78296Z" fill="#002F86"/>
<path d="M34.5083 2.92557L33.7169 8.21038C33.7015 8.31268 33.7768 8.40532 33.8755 8.40532H34.6716C34.8034 8.40532 34.9157 8.30459 34.9361 8.16785L35.7166 2.97802C35.732 2.87573 35.6566 2.78309 35.5577 2.78309H34.6671C34.5878 2.78309 34.5204 2.84337 34.5083 2.92557ZM32.1331 6.54167C32.0439 7.09541 31.6252 7.46727 31.0909 7.46727C30.8231 7.46727 30.6086 7.37672 30.4708 7.20553C30.3341 7.03591 30.2829 6.79401 30.3261 6.52497C30.4092 5.97592 30.8348 5.59232 31.3609 5.59232C31.6232 5.59232 31.836 5.68366 31.9765 5.85641C32.1179 6.03046 32.1736 6.27367 32.1331 6.54167ZM33.42 4.65524H32.4966C32.4175 4.65524 32.3502 4.71552 32.3377 4.79772L32.2972 5.06859L32.2326 4.97047C32.0327 4.66594 31.5869 4.56391 31.1419 4.56391C30.1218 4.56391 29.2504 5.37547 29.0808 6.51349C28.9926 7.08132 29.1179 7.62384 29.4247 8.00248C29.7063 8.35033 30.1084 8.49516 30.5874 8.49516C31.4099 8.49516 31.8658 7.9409 31.8658 7.9409L31.8246 8.2102C31.8092 8.31249 31.8845 8.40513 31.9834 8.40513H32.8148C32.9468 8.40513 33.059 8.30467 33.0796 8.16793L33.5788 4.85017C33.5942 4.74788 33.5187 4.65524 33.42 4.65524ZM27.8789 4.67852C27.7735 5.40501 27.2449 5.40501 26.7335 5.40501H26.4426L26.6467 4.04858C26.6589 3.96664 26.7263 3.90636 26.8054 3.90636H26.9389C27.2869 3.90636 27.6156 3.90636 27.7852 4.11434C27.8866 4.23881 27.9172 4.42357 27.8789 4.67852ZM27.6564 2.78296H25.7281C25.5961 2.78296 25.4839 2.88369 25.4633 3.02043L24.6836 8.21025C24.6682 8.31255 24.7438 8.40518 24.8423 8.40518H25.8318C25.924 8.40518 26.0026 8.33473 26.017 8.23922L26.2383 6.76771C26.2586 6.63097 26.371 6.53024 26.5028 6.53024H27.1129C28.3831 6.53024 29.1163 5.88516 29.3077 4.60624C29.394 4.04727 29.3112 3.60783 29.0618 3.30017C28.7876 2.96197 28.3015 2.78296 27.6564 2.78296Z" fill="#009CDE"/>
<path d="M6.76748 0.994316C6.35129 0.496418 5.59897 0.282959 4.63657 0.282959H1.84334C1.64643 0.282959 1.47911 0.433268 1.44828 0.637072L0.285246 8.37928C0.262124 8.53194 0.374748 8.67024 0.522179 8.67024H2.2466L2.67969 5.78697L2.66627 5.87726C2.6971 5.67346 2.86317 5.52315 3.05983 5.52315H3.87928C5.48908 5.52315 6.74958 4.83685 7.11778 2.85152C7.12872 2.7928 7.13817 2.73565 7.14637 2.67981C7.09988 2.65398 7.09988 2.65398 7.14637 2.67981C7.25602 1.94601 7.14558 1.44655 6.76748 0.994316Z" fill="#003087"/>
<path d="M3.14511 2.68971C3.1635 2.56706 3.23859 2.46659 3.33953 2.41571C3.38552 2.39275 3.43674 2.37996 3.49044 2.37996H5.68027C5.93958 2.37996 6.18148 2.3977 6.40251 2.43502C6.4659 2.44571 6.52731 2.45798 6.58698 2.47207C6.64665 2.48589 6.70458 2.50156 6.76077 2.51879C6.78886 2.52739 6.81646 2.53628 6.84356 2.54566C6.9522 2.58376 7.05339 2.62812 7.14637 2.68005C7.25601 1.94599 7.14558 1.44679 6.76748 0.99456C6.35104 0.496662 5.59897 0.283203 4.63657 0.283203H1.84309C1.64643 0.283203 1.47911 0.433512 1.44828 0.637316L0.285246 8.37926C0.262124 8.53218 0.374749 8.67022 0.521931 8.67022H2.2466L2.67969 5.78696L3.14511 2.68971Z" fill="#002F86"/>
<path d="M7.14649 2.67993C7.13803 2.73604 7.12882 2.79292 7.1179 2.85164C6.74969 4.83671 5.48919 5.52327 3.87939 5.52327H3.05969C2.86304 5.52327 2.69696 5.67358 2.66638 5.87738L2.24671 8.6701L2.12762 9.46235C2.10748 9.59596 2.20594 9.71704 2.33472 9.71704H3.78839C3.96044 9.71704 4.10687 9.58552 4.13373 9.40729L4.14791 9.32953L4.42188 7.50703L4.43955 7.40631C4.4664 7.22808 4.61283 7.09656 4.78488 7.09656H5.00242C6.41059 7.09656 7.51322 6.4961 7.83543 4.75946C7.96993 4.03375 7.90032 3.42782 7.54455 3.00221C7.43664 2.8733 7.30264 2.76683 7.14651 2.67993" fill="#009CDE"/>
<path d="M6.76052 2.51871C6.70433 2.50149 6.6464 2.48583 6.58673 2.472C6.52706 2.45816 6.46541 2.4459 6.40226 2.4352C6.18099 2.39763 5.93933 2.37988 5.67977 2.37988H3.49019C3.43624 2.37988 3.38502 2.39268 3.33927 2.41589C3.23809 2.46678 3.16325 2.56699 3.14486 2.68989L2.67944 5.78714L2.66602 5.87743C2.6966 5.67363 2.86267 5.52332 3.05933 5.52332H3.87903C5.48883 5.52332 6.74933 4.83701 7.11753 2.85169C7.12847 2.79297 7.13767 2.73608 7.14612 2.67998C7.05289 2.62831 6.95195 2.58369 6.84331 2.54585C6.81621 2.53645 6.78861 2.52731 6.76052 2.51871Z" fill="#012069"/>
</svg>
