<svg width="37" height="15" viewBox="0 0 37 15" fill="none" xmlns="http://www.w3.org/2000/svg">
<path d="M6.19168 10.0996C6.05151 10.0996 5.91929 10.0996 5.77894 10.0996C5.77894 10.1517 5.77894 10.1945 5.77894 10.2373C5.77889 10.7846 5.78003 11.3321 5.77685 11.8794C5.77661 11.924 5.76055 11.9893 5.72867 12.0099C5.40435 12.2201 4.85611 12.2304 4.56571 12.0195C4.38388 11.8874 4.35457 11.665 4.49706 11.4926C4.59417 11.3752 4.71941 11.3035 4.87221 11.2863C5.00026 11.272 5.12906 11.2643 5.25678 11.2538C5.25678 11.1324 5.25678 11.02 5.25678 10.8961C5.1551 10.8961 5.06003 10.9024 4.96615 10.8946C4.84485 10.8844 4.72236 10.8718 4.60453 10.8434C4.51117 10.8209 4.45867 10.7407 4.46209 10.6475C4.4656 10.5537 4.52533 10.4782 4.6203 10.4644C4.74013 10.4469 4.86347 10.4446 4.98482 10.4488C5.07595 10.4519 5.16636 10.4755 5.26405 10.491C5.26405 10.3774 5.26875 10.2828 5.26124 10.1891C5.25896 10.1603 5.22865 10.1179 5.20204 10.1093C4.88884 10.0082 4.58267 10.0257 4.30036 10.2005C3.94948 10.4178 3.94829 10.8304 4.29052 11.0637C4.30934 11.0765 4.32639 11.0918 4.35466 11.1143C4.31485 11.1463 4.28202 11.1727 4.249 11.199C4.02441 11.3779 3.92962 11.6713 4.016 11.9397C4.10404 12.2135 4.30915 12.3724 4.57132 12.4652C4.81696 12.5521 5.07219 12.5617 5.33061 12.5414C5.6287 12.518 5.89715 12.4239 6.11504 12.218C6.15979 12.1757 6.19324 12.0985 6.19381 12.037C6.19956 11.4306 6.19738 10.8242 6.19704 10.2178C6.19704 10.1794 6.19362 10.1412 6.19168 10.0996Z" fill="#522980"/>
<path d="M8.94766 11.6295C8.9077 11.6049 8.89682 11.5852 8.88927 11.5642C8.74255 11.1541 8.59564 10.7441 8.45002 10.3337C8.3626 10.0874 8.36355 10.0896 8.10479 10.0886C8.03077 10.0884 7.99556 10.1078 7.97019 10.1823C7.81716 10.6318 7.65742 11.0791 7.49892 11.5267C7.486 11.5632 7.46523 11.597 7.43231 11.6643C7.2807 11.1147 7.13959 10.6032 6.99938 10.0948C6.85812 10.0948 6.73155 10.0948 6.59082 10.0948C6.59443 10.1301 6.59362 10.1539 6.59966 10.1758C6.79517 10.8899 6.99068 11.604 7.18786 12.3177C7.24307 12.5175 7.24559 12.5131 7.45041 12.5178C7.53379 12.5197 7.57551 12.4976 7.6034 12.4141C7.72888 12.0383 7.86182 11.6649 7.99343 11.2912C8.04868 11.1343 8.10731 10.9785 8.16437 10.8222C8.21046 10.8596 8.2278 10.8967 8.24139 10.9351C8.40255 11.3901 8.56319 11.8454 8.72397 12.3006C8.80118 12.5193 8.80123 12.5153 9.03047 12.5181C9.11067 12.5191 9.13856 12.4888 9.15785 12.4173C9.31417 11.8387 9.47447 11.2611 9.63274 10.683C9.68519 10.4912 9.73498 10.2987 9.78858 10.097C9.6392 10.097 9.50578 10.097 9.37028 10.097C9.22836 10.6117 9.08801 11.1206 8.94766 11.6295Z" fill="#522980"/>
<path d="M15.3785 10.1998C15.3782 10.6527 15.3686 11.1058 15.3817 11.5583C15.3903 11.8561 15.2597 12.0259 14.9713 12.1324C14.5305 12.2952 14.1975 12.0668 14.1975 11.6065C14.1975 11.3467 14.1983 11.0867 14.1971 10.8268C14.1963 10.6462 14.1275 10.4935 14.0063 10.3583C13.6237 9.9314 12.6145 9.89922 12.1706 10.4602C12.1276 10.5146 12.0875 10.5896 12.0866 10.6555C12.0795 11.2343 12.0814 11.8132 12.0811 12.3921C12.0811 12.4301 12.0853 12.4682 12.0876 12.5064C12.3491 12.5064 12.6008 12.5064 12.8525 12.5064C12.8525 12.3843 12.8525 12.2718 12.8525 12.1428C12.7334 12.1428 12.6206 12.1428 12.5052 12.1428C12.5027 12.0951 12.4996 12.064 12.4996 12.0328C12.4994 11.5957 12.4982 11.1586 12.5024 10.7215C12.5028 10.6856 12.5331 10.641 12.5628 10.6157C12.8065 10.4087 13.091 10.3807 13.3892 10.4534C13.6219 10.5101 13.7988 10.6627 13.7834 10.9637C13.7708 11.2111 13.7773 11.4597 13.7821 11.7078C13.7857 11.895 13.8285 12.0739 13.9491 12.2249C14.2263 12.5721 14.7475 12.6649 15.1678 12.4429C15.2328 12.4086 15.2953 12.3697 15.3689 12.3272C15.3759 12.3977 15.3816 12.4539 15.3871 12.508C15.5259 12.508 15.6551 12.508 15.7853 12.508C15.7853 11.6995 15.7853 10.8988 15.7853 10.0946C15.6492 10.0946 15.5228 10.0946 15.3836 10.0946C15.3815 10.138 15.3785 10.1689 15.3785 10.1998Z" fill="#522980"/>
<path d="M11.4271 10.332C11.1219 9.97147 10.447 9.99249 10.1324 10.1454C10.1084 10.157 10.0795 10.1884 10.0785 10.2116C10.0731 10.3342 10.076 10.4572 10.076 10.5888C10.1697 10.5468 10.2425 10.5068 10.3203 10.4814C10.4022 10.4547 10.4879 10.4334 10.5735 10.4248C10.8751 10.3942 11.1154 10.5134 11.1916 10.8103C11.2119 10.8892 11.2196 10.973 11.2201 11.0545C11.2228 11.4952 11.2214 11.9359 11.2214 12.3765C11.2214 12.4187 11.2214 12.4608 11.2214 12.507C11.3728 12.507 11.502 12.507 11.6304 12.507C11.6345 12.4873 11.6388 12.476 11.6388 12.4647C11.6394 11.9611 11.6463 11.4574 11.6368 10.9539C11.6325 10.7302 11.5837 10.5168 11.4271 10.332Z" fill="#522980"/>
<path d="M3.34248 10.3017C3.03574 10.013 2.44878 9.95304 2.06298 10.1739C2.0072 10.2059 1.94999 10.2355 1.88196 10.2723C1.87687 10.2017 1.87331 10.1519 1.86951 10.0991C1.73077 10.0991 1.59826 10.0991 1.4668 10.0991C1.4668 10.9085 1.4668 11.7089 1.4668 12.5086C1.6061 12.5086 1.73553 12.5086 1.8755 12.5086C1.8755 12.459 1.8755 12.4165 1.8755 12.374C1.8755 11.8977 1.86908 11.4211 1.88091 10.9451C1.88329 10.8495 1.93451 10.7382 1.99874 10.6645C2.12702 10.5175 2.30648 10.4529 2.50285 10.4306C2.95568 10.3791 3.18407 10.6259 3.17775 10.9818C3.16939 11.4501 3.17557 11.9187 3.17595 12.3872C3.176 12.4286 3.17937 12.47 3.18122 12.5116C3.32224 12.5116 3.44872 12.5116 3.58446 12.5116C3.58802 12.4836 3.59168 12.4684 3.59168 12.4531C3.59206 11.9295 3.59714 11.4058 3.58973 10.8823C3.58664 10.661 3.51129 10.4606 3.34248 10.3017Z" fill="#522980"/>
<path d="M12.3319 7.50664C12.8229 7.8747 13.3962 7.97446 13.9889 7.99619C14.452 8.01313 14.9022 7.92103 15.3437 7.78716C15.6071 7.70725 15.611 7.70626 15.5807 7.44097C15.5596 7.25664 15.5255 7.07371 15.4961 6.88279C14.9159 7.10617 14.3296 7.16741 13.7302 7.08886C13.2492 7.02588 12.8865 6.78684 12.7169 6.32409C12.485 5.69135 12.4895 5.04785 12.6939 4.40914C12.8232 4.00524 13.1062 3.74254 13.5214 3.63741C13.8897 3.54418 14.2667 3.53802 14.6417 3.59305C14.9186 3.63374 15.1927 3.69338 15.4852 3.74776C15.5246 3.49409 15.5664 3.24 15.5998 2.98473C15.6031 2.95952 15.5603 2.91267 15.5293 2.90119C15.152 2.76102 14.7583 2.69536 14.3581 2.67292C13.9846 2.65199 13.6127 2.67965 13.2481 2.76601C12.4822 2.94738 11.9223 3.37504 11.6461 4.12052C11.4009 4.78237 11.3857 5.46454 11.5191 6.14963C11.6252 6.69469 11.874 7.16341 12.3319 7.50664Z" fill="#522980"/>
<path d="M0.82869 9.37033C0.590701 9.32946 0.344112 9.33778 0.101562 9.32471C0.101562 9.43628 0.101562 9.51728 0.101562 9.6082C0.227898 9.6082 0.346821 9.60199 0.464603 9.61093C0.522426 9.6153 0.578063 9.64775 0.634697 9.66751C0.611939 9.7209 0.600061 9.78331 0.564189 9.82593C0.480045 9.92579 0.426404 10.0269 0.427401 10.1646C0.432628 10.9004 0.429872 11.6363 0.429872 12.3721C0.429872 12.4176 0.429872 12.4631 0.429872 12.5104C0.584857 12.5104 0.722262 12.5104 0.872829 12.5104C0.872829 12.4583 0.872829 12.4122 0.872829 12.3661C0.872829 11.709 0.875394 11.0519 0.871261 10.3948C0.870025 10.1997 0.883471 10.0219 1.00786 9.85034C1.13799 9.67094 1.03898 9.40646 0.82869 9.37033Z" fill="#522980"/>
<path d="M9.22423 7.03657C8.7617 7.20961 8.28639 7.16277 7.82082 7.04809C7.50381 6.97001 7.1966 6.85298 6.87086 6.74884C6.83042 7.01648 6.78704 7.30388 6.74414 7.58807C6.76728 7.60265 6.77992 7.6122 6.79393 7.61907C6.82938 7.63652 6.86468 7.65454 6.90131 7.66921C7.51156 7.91371 8.14176 8.03088 8.80289 7.98233C9.13838 7.95773 9.46336 7.89899 9.77115 7.7655C10.4825 7.45693 10.7773 6.93436 10.6829 6.19842C10.619 5.70044 10.3467 5.33732 9.87886 5.15613C9.49767 5.00848 9.09272 4.92198 8.70317 4.79404C8.44912 4.71065 8.19659 4.61577 7.95689 4.49893C7.79568 4.42029 7.75268 4.24569 7.79269 4.06986C7.83973 3.863 7.98511 3.74785 8.16903 3.67697C8.6415 3.49489 9.12769 3.54103 9.61122 3.61605C9.86422 3.65528 10.1132 3.71982 10.3736 3.77499C10.4071 3.55947 10.4342 3.3423 10.476 3.12791C10.513 2.93854 10.513 2.94677 10.3348 2.90947C9.97592 2.8343 9.61483 2.76469 9.25141 2.71619C8.77481 2.65265 8.30221 2.69672 7.84153 2.8368C6.95438 3.1066 6.65776 3.86746 6.83318 4.59498C6.93319 5.00961 7.229 5.27927 7.61176 5.42998C7.95874 5.56657 8.32673 5.65143 8.68654 5.75543C8.99494 5.84461 9.30871 5.92128 9.55554 6.14348C9.75395 6.32208 9.7844 6.59024 9.6021 6.78445C9.5009 6.89226 9.3634 6.9845 9.22423 7.03657Z" fill="#522980"/>
<path d="M20.5124 9.33529C20.2369 9.34107 20.1116 9.47649 20.1174 9.77004C20.2563 9.77004 20.3858 9.77004 20.5155 9.77004C20.5093 9.76054 20.5031 9.75108 20.4969 9.74158C20.5504 9.69939 20.598 9.63801 20.6588 9.6199C20.7304 9.59864 20.8133 9.61491 20.8972 9.61491C20.8972 9.51369 20.8972 9.42997 20.8972 9.33486C20.7641 9.33482 20.6382 9.33265 20.5124 9.33529Z" fill="#522980"/>
<path d="M13.834 9.78796C14.4929 9.78796 15.1382 9.78796 15.7878 9.78796C15.7878 9.68438 15.7878 9.58838 15.7878 9.48975C15.1324 9.48975 14.4843 9.48975 13.834 9.48975C13.834 9.59261 13.834 9.68584 13.834 9.78796Z" fill="#522980"/>
<path d="M17.9716 10.7923C17.8939 10.728 17.804 10.6783 17.7076 10.6137C17.8519 10.4854 17.9891 10.3633 18.1362 10.2324C18.0338 10.1765 17.9429 10.1216 17.8468 10.0778C17.8201 10.0657 17.7684 10.0746 17.7448 10.0938C17.4793 10.3109 17.217 10.5318 16.9435 10.7604C17.0043 10.7729 17.0514 10.7771 17.0946 10.7921C17.258 10.8489 17.4298 10.8913 17.5805 10.9721C17.8321 11.1071 17.9334 11.3388 17.906 11.6162C17.8802 11.88 17.7142 12.0552 17.468 12.1176C17.277 12.166 17.0699 12.1573 16.8696 12.1628C16.7453 12.1662 16.7005 12.102 16.7026 11.9687C16.7116 11.3902 16.7065 10.8114 16.7065 10.2327C16.7065 10.1875 16.7065 10.1424 16.7065 10.0947C16.5589 10.0947 16.4325 10.0947 16.2964 10.0947C16.2925 10.1227 16.2886 10.1379 16.2886 10.153C16.2881 10.8773 16.2869 11.6017 16.2914 12.3261C16.2916 12.3617 16.3351 12.4171 16.3704 12.4293C16.7675 12.5673 17.1746 12.6004 17.5814 12.4876C17.9393 12.3885 18.2071 12.1744 18.2943 11.7999C18.3858 11.4065 18.2941 11.0592 17.9716 10.7923Z" fill="#522980"/>
<path d="M20.7855 10.0982C20.6376 10.0982 20.5083 10.0982 20.3669 10.0982C20.3669 10.1523 20.3669 10.1987 20.3669 10.245C20.3669 10.7844 20.3638 11.3239 20.3696 11.8633C20.3706 11.9636 20.335 12.0216 20.2467 12.0504C20.1195 12.0919 19.9925 12.1432 19.8614 12.1619C19.6213 12.196 19.3842 12.1683 19.1741 12.0358C18.9683 11.9061 18.9331 11.6744 19.0853 11.4873C19.1786 11.3726 19.3034 11.3059 19.4502 11.2872C19.5744 11.2715 19.6998 11.2652 19.8248 11.2548C19.8248 11.1331 19.8248 11.0178 19.8248 10.8959C19.6996 10.8959 19.584 10.9035 19.4698 10.8936C19.3685 10.8848 19.2659 10.8655 19.1693 10.8345C19.0825 10.8066 19.0395 10.733 19.0461 10.6397C19.0527 10.5452 19.111 10.4792 19.1985 10.4662C19.322 10.4479 19.4491 10.4465 19.5744 10.4493C19.6578 10.4512 19.7407 10.4728 19.8347 10.4874C19.8347 10.3733 19.8396 10.2789 19.8317 10.1856C19.8293 10.1562 19.7974 10.1129 19.7701 10.1046C19.4371 10.0044 19.117 10.0317 18.8311 10.2381C18.5953 10.4083 18.5228 10.7785 18.7986 11.0021C18.8412 11.0366 18.8847 11.0704 18.9403 11.1146C18.9061 11.1411 18.8805 11.1591 18.8571 11.1795C18.7071 11.3096 18.5898 11.4571 18.5755 11.6658C18.5507 12.027 18.7318 12.2644 19.0419 12.4173C19.3233 12.556 19.6272 12.5667 19.9335 12.5396C20.2299 12.5132 20.5001 12.4196 20.7108 12.2027C20.7517 12.1606 20.7817 12.089 20.7823 12.0307C20.7873 11.4283 20.7854 10.8259 20.7854 10.2235C20.7855 10.1819 20.7855 10.1403 20.7855 10.0982Z" fill="#522980"/>
<path d="M20.2387 5.27038C20.1877 5.25415 20.1377 5.23491 20.0872 5.21709C20.089 5.20528 20.0907 5.19352 20.0925 5.18171C20.1233 5.16831 20.1534 5.15279 20.1851 5.14183C20.4704 5.04338 20.6637 4.85147 20.7635 4.57151C20.8434 4.34761 20.8698 4.11864 20.8402 3.87861C20.7949 3.51201 20.6189 3.2375 20.3015 3.04992C19.9166 2.82245 19.4853 2.77697 19.0531 2.76982C18.2973 2.7573 17.5412 2.76634 16.7853 2.76634C16.7429 2.76634 16.7005 2.76634 16.6562 2.76634C16.6562 4.48797 16.6562 6.1946 16.6562 7.90424C16.6974 7.90603 16.729 7.90866 16.7606 7.90861C17.5842 7.90791 18.408 7.91694 19.2313 7.90043C19.5133 7.89479 19.8027 7.8557 20.0736 7.77908C20.967 7.5263 21.213 6.85443 21.0619 6.10617C20.9732 5.6668 20.6624 5.40523 20.2387 5.27038ZM17.6638 3.6042C17.7124 3.6042 17.7547 3.60415 17.797 3.60425C18.2226 3.6049 18.6482 3.59968 19.0736 3.60961C19.2177 3.61299 19.3655 3.63999 19.5036 3.68223C19.7335 3.75265 19.8679 3.95194 19.8694 4.1922C19.87 4.28628 19.8761 4.3836 19.8553 4.47395C19.7961 4.732 19.5875 4.90241 19.2765 4.91045C18.7443 4.92424 18.2114 4.91426 17.6638 4.91426C17.6638 4.474 17.6638 4.04691 17.6638 3.6042ZM20.0494 6.55222C19.9849 6.8668 19.7842 7.05203 19.4405 7.06134C18.8602 7.07701 18.2792 7.06577 17.6985 7.06539C17.6913 7.06539 17.6841 7.06022 17.6631 7.05212C17.6631 6.58538 17.6631 6.12198 17.6631 5.64611C17.706 5.64371 17.7442 5.63966 17.7825 5.63962C18.1525 5.63914 18.5226 5.63402 18.8924 5.64131C19.1135 5.64568 19.3374 5.65189 19.5545 5.68933C19.8828 5.74601 20.0587 5.97513 20.0607 6.30523C20.0611 6.38769 20.0658 6.47235 20.0494 6.55222Z" fill="#522980"/>
<path fill-rule="evenodd" clip-rule="evenodd" d="M10.3736 3.77504C10.1132 3.71986 9.86416 3.65533 9.6112 3.6161C9.12767 3.54107 8.64148 3.49493 8.16902 3.67701C7.98511 3.7479 7.83972 3.86299 7.79268 4.06991C7.75268 4.24573 7.79568 4.42033 7.95688 4.49898C8.19658 4.61586 8.44911 4.71069 8.70315 4.79409C9.09275 4.92207 9.4977 5.00853 9.87884 5.15618C10.3467 5.33736 10.6189 5.70048 10.6828 6.19846C10.7773 6.9344 10.4825 7.45698 9.77113 7.76554C9.46335 7.89908 9.13836 7.95778 8.80288 7.98238C8.14175 8.03092 7.51155 7.91375 6.90131 7.66925C6.86468 7.65453 6.82933 7.63656 6.79393 7.61911C6.77992 7.6122 6.76728 7.60265 6.74414 7.58812C6.78704 7.30392 6.83042 7.01657 6.87085 6.74889C7.19655 6.85302 7.50376 6.97005 7.82081 7.04813C8.28638 7.16281 8.76169 7.20966 9.22422 7.03661C9.36338 6.98454 9.50088 6.89235 9.60213 6.78445C9.78443 6.59023 9.75398 6.32207 9.55557 6.14348C9.30874 5.92132 8.99497 5.8446 8.68657 5.75542C8.32676 5.65142 7.95878 5.56657 7.6118 5.42998C7.229 5.27927 6.93324 5.00961 6.83323 4.59498C6.65781 3.86742 6.95443 3.10655 7.84157 2.83679C8.30225 2.69672 8.77485 2.65265 9.25144 2.71619C9.61481 2.76469 9.97595 2.8343 10.3349 2.90947C10.513 2.94681 10.513 2.93853 10.4761 3.1279C10.4342 3.34234 10.407 3.55951 10.3736 3.77504Z" fill="#522980"/>
<path fill-rule="evenodd" clip-rule="evenodd" d="M15.4853 3.74776C15.1927 3.69338 14.9186 3.63374 14.6417 3.59305C14.2667 3.53797 13.8898 3.54418 13.5214 3.63741C13.1062 3.74254 12.8232 4.00519 12.6939 4.40914C12.4895 5.04785 12.485 5.69136 12.7169 6.32409C12.8865 6.78684 13.2493 7.02583 13.7303 7.08886C14.3295 7.16741 14.9159 7.10617 15.4961 6.8828C15.5255 7.07376 15.5597 7.25664 15.5807 7.44098C15.611 7.70631 15.6071 7.70725 15.3437 7.78717C14.9022 7.92108 14.452 8.01318 13.9889 7.9962C13.3963 7.97447 12.823 7.8747 12.3319 7.50664C11.874 7.16342 11.6252 6.69465 11.5191 6.14964C11.3857 5.46455 11.4009 4.78238 11.646 4.12052C11.9222 3.37504 12.4822 2.94743 13.2481 2.76601C13.6127 2.67965 13.9845 2.65199 14.358 2.67292C14.7583 2.69531 15.152 2.76102 15.5293 2.90119C15.5603 2.91272 15.6031 2.95957 15.5998 2.98473C15.5664 3.24 15.5246 3.49409 15.4853 3.74776Z" fill="#522980"/>
<path fill-rule="evenodd" clip-rule="evenodd" d="M15.3836 10.0946C15.5228 10.0946 15.6492 10.0946 15.7853 10.0946C15.7853 10.8988 15.7853 11.6995 15.7853 12.5081C15.6551 12.5081 15.5259 12.5081 15.3871 12.5081C15.3816 12.4539 15.3759 12.3977 15.3689 12.3272C15.2953 12.3697 15.2328 12.4086 15.1678 12.4429C14.7475 12.665 14.2263 12.5721 13.9491 12.2249C13.8285 12.0739 13.7857 11.895 13.7821 11.7078C13.7773 11.4598 13.7708 11.2111 13.7834 10.9637C13.7988 10.6627 13.6219 10.5101 13.3892 10.4534C13.091 10.3807 12.8065 10.4087 12.5628 10.6157C12.5332 10.641 12.5028 10.6856 12.5024 10.7215C12.4982 11.1586 12.4994 11.5957 12.4996 12.0328C12.4996 12.064 12.5027 12.0951 12.5052 12.1428C12.6206 12.1428 12.7333 12.1428 12.8525 12.1428C12.8525 12.2718 12.8525 12.3844 12.8525 12.5064C12.6008 12.5064 12.3491 12.5064 12.0876 12.5064C12.0854 12.4682 12.0811 12.4302 12.0811 12.3921C12.0814 11.8132 12.0795 11.2343 12.0866 10.6555C12.0875 10.5896 12.1276 10.5146 12.1706 10.4602C12.6145 9.89922 13.6237 9.9314 14.0063 10.3583C14.1274 10.4935 14.1963 10.6462 14.1971 10.8268C14.1983 11.0867 14.1974 11.3467 14.1975 11.6066C14.1975 12.0669 14.5305 12.2952 14.9713 12.1324C15.2597 12.0259 15.3903 11.8561 15.3817 11.5583C15.3686 11.1058 15.3782 10.6527 15.3785 10.1998C15.3785 10.1689 15.3815 10.138 15.3836 10.0946Z" fill="#522980"/>
<path fill-rule="evenodd" clip-rule="evenodd" d="M6.59082 10.0951C6.73155 10.0951 6.85812 10.0951 6.99938 10.0951C7.13959 10.6035 7.2807 11.115 7.43231 11.6645C7.46524 11.5972 7.486 11.5635 7.49892 11.527C7.65747 11.0793 7.81716 10.632 7.9702 10.1825C7.99557 10.1081 8.03077 10.0886 8.1048 10.0889C8.36355 10.0898 8.3626 10.0876 8.45002 10.3339C8.59565 10.7444 8.74256 11.1543 8.88927 11.5644C8.89678 11.5854 8.90771 11.6051 8.94767 11.6297C9.08802 11.1208 9.22837 10.612 9.37024 10.0973C9.50575 10.0973 9.63916 10.0973 9.78854 10.0973C9.73499 10.299 9.68515 10.4915 9.6327 10.6833C9.47444 11.2614 9.31413 11.839 9.15781 12.4176C9.13852 12.4891 9.11063 12.5193 9.03043 12.5183C8.80114 12.5156 8.80114 12.5195 8.72393 12.3008C8.5632 11.8456 8.40251 11.3904 8.24135 10.9353C8.22776 10.897 8.21047 10.8599 8.16433 10.8225C8.10727 10.9787 8.04864 11.1345 7.99338 11.2914C7.86177 11.6652 7.72883 12.0386 7.60335 12.4143C7.57546 12.4978 7.53375 12.52 7.45036 12.5181C7.24549 12.5133 7.24302 12.5178 7.18781 12.318C6.99064 11.6043 6.79512 10.8902 6.59961 10.1761C6.59362 10.1541 6.59443 10.1303 6.59082 10.0951Z" fill="#522980"/>
<path fill-rule="evenodd" clip-rule="evenodd" d="M4.35464 11.1143C4.32637 11.0918 4.30932 11.0765 4.2905 11.0637C3.94827 10.8304 3.94946 10.4178 4.30034 10.2005C4.58265 10.0257 4.88882 10.0082 5.20202 10.1093C5.22863 10.1179 5.25889 10.1603 5.26122 10.1891C5.26873 10.2828 5.26402 10.3774 5.26402 10.491C5.16634 10.4755 5.07592 10.4519 4.9848 10.4488C4.8634 10.4446 4.74011 10.4469 4.62028 10.4644C4.52531 10.4782 4.46558 10.5537 4.46207 10.6475C4.4586 10.7407 4.5111 10.821 4.60451 10.8434C4.72234 10.8718 4.84487 10.8844 4.96612 10.8946C5.06001 10.9024 5.15508 10.8961 5.25676 10.8961C5.25676 11.02 5.25676 11.1324 5.25676 11.2538C5.12904 11.2644 5.00024 11.272 4.87219 11.2863C4.71939 11.3035 4.59415 11.3752 4.49704 11.4926C4.35455 11.665 4.38391 11.8874 4.56569 12.0195C4.85609 12.2304 5.40428 12.2201 5.72864 12.0099C5.76053 11.9892 5.77658 11.924 5.77682 11.8794C5.78001 11.332 5.77891 10.7846 5.77891 10.2373C5.77891 10.1945 5.77891 10.1517 5.77891 10.0996C5.91926 10.0996 6.05149 10.0996 6.19165 10.0996C6.1936 10.1412 6.19702 10.1794 6.19702 10.2178C6.19735 10.8242 6.19954 11.4306 6.19379 12.037C6.19317 12.0985 6.15977 12.1757 6.11501 12.218C5.89717 12.4239 5.62868 12.518 5.33059 12.5414C5.07217 12.5617 4.81694 12.5521 4.5713 12.4652C4.30913 12.3724 4.10402 12.2135 4.01598 11.9397C3.92965 11.6713 4.02439 11.3779 4.24898 11.199C4.282 11.1728 4.31483 11.1463 4.35464 11.1143Z" fill="#522980"/>
<path fill-rule="evenodd" clip-rule="evenodd" d="M18.9412 11.1148C18.8855 11.0707 18.8421 11.0369 18.7994 11.0023C18.5236 10.7787 18.5962 10.4086 18.832 10.2383C19.1179 10.0319 19.438 10.0046 19.771 10.1049C19.7982 10.1131 19.8301 10.1565 19.8326 10.1858C19.8405 10.2792 19.8355 10.3736 19.8355 10.4876C19.7415 10.4731 19.6586 10.4514 19.5753 10.4496C19.45 10.4468 19.3228 10.4482 19.1993 10.4665C19.1118 10.4794 19.0536 10.5455 19.0469 10.64C19.0404 10.7332 19.0833 10.8069 19.1701 10.8348C19.2668 10.8658 19.3693 10.8851 19.4707 10.8939C19.5849 10.9038 19.7005 10.8961 19.8256 10.8961C19.8256 11.018 19.8256 11.1333 19.8256 11.255C19.7007 11.2655 19.5753 11.2717 19.4511 11.2875C19.3043 11.3061 19.1794 11.3728 19.0861 11.4875C18.934 11.6746 18.9692 11.9063 19.175 12.0361C19.385 12.1684 19.6222 12.1961 19.8622 12.1621C19.9934 12.1434 20.1204 12.0921 20.2475 12.0507C20.3359 12.0219 20.3715 11.9638 20.3704 11.8635C20.3647 11.3241 20.3677 10.7846 20.3677 10.2452C20.3677 10.199 20.3677 10.1526 20.3677 10.0984C20.5091 10.0984 20.6384 10.0984 20.7863 10.0984C20.7863 10.1406 20.7863 10.1822 20.7863 10.2237C20.7863 10.8262 20.7883 11.4286 20.7832 12.031C20.7827 12.0893 20.7526 12.1609 20.7118 12.203C20.501 12.4198 20.2308 12.5135 19.9344 12.5398C19.6282 12.567 19.3243 12.5564 19.0428 12.4175C18.7327 12.2647 18.5517 12.0273 18.5765 11.666C18.5908 11.4574 18.7081 11.3099 18.858 11.1798C18.8814 11.1594 18.9071 11.1414 18.9412 11.1148Z" fill="#522980"/>
<path fill-rule="evenodd" clip-rule="evenodd" d="M16.2973 10.0947C16.4335 10.0947 16.5599 10.0947 16.7074 10.0947C16.7074 10.1424 16.7074 10.1875 16.7074 10.2327C16.7074 10.8114 16.7125 11.3902 16.7035 11.9687C16.7015 12.102 16.7463 12.1662 16.8706 12.1628C17.0709 12.1573 17.278 12.166 17.469 12.1176C17.7151 12.0552 17.8811 11.8799 17.907 11.6162C17.9343 11.3387 17.833 11.107 17.5814 10.9721C17.4307 10.8913 17.2589 10.8489 17.0955 10.7921C17.0524 10.7771 17.0053 10.7729 16.9444 10.7604C17.2179 10.5318 17.4802 10.3109 17.7458 10.0938C17.7693 10.0746 17.821 10.0657 17.8477 10.0778C17.9438 10.1216 18.0347 10.1765 18.1371 10.2324C17.99 10.3633 17.8528 10.4854 17.7085 10.6137C17.8049 10.6783 17.8949 10.728 17.9725 10.7923C18.2951 11.0592 18.3868 11.4065 18.2953 11.7999C18.2081 12.1744 17.9403 12.3885 17.5824 12.4877C17.1755 12.6004 16.7684 12.5673 16.3714 12.4294C16.3361 12.4171 16.2926 12.3616 16.2924 12.3261C16.2879 11.6018 16.2891 10.8774 16.2895 10.1531C16.2894 10.1379 16.2934 10.1227 16.2973 10.0947Z" fill="#522980"/>
<path fill-rule="evenodd" clip-rule="evenodd" d="M3.58446 12.5116C3.44877 12.5116 3.32224 12.5116 3.18123 12.5116C3.17937 12.47 3.17595 12.4286 3.17595 12.3872C3.17557 11.9187 3.1694 11.4501 3.17776 10.9818C3.18408 10.6259 2.95569 10.3791 2.50285 10.4306C2.30648 10.4529 2.12698 10.5175 1.99874 10.6645C1.93451 10.7382 1.88329 10.8495 1.88091 10.9451C1.86908 11.4211 1.8755 11.8977 1.8755 12.374C1.8755 12.4165 1.8755 12.459 1.8755 12.5086C1.73553 12.5086 1.6061 12.5086 1.4668 12.5086C1.4668 11.7089 1.4668 10.9085 1.4668 10.0991C1.59826 10.0991 1.73073 10.0991 1.86951 10.0991C1.87331 10.1519 1.87687 10.2017 1.88196 10.2723C1.94995 10.2355 2.00715 10.2059 2.06298 10.1739C2.44878 9.95304 3.03574 10.013 3.34248 10.3017C3.51129 10.4606 3.58665 10.661 3.58978 10.8823C3.5972 11.4059 3.59211 11.9296 3.59173 12.4531C3.59169 12.4684 3.58803 12.4837 3.58446 12.5116Z" fill="#522980"/>
<path fill-rule="evenodd" clip-rule="evenodd" d="M0.872828 12.5104C0.72231 12.5104 0.584857 12.5104 0.429872 12.5104C0.429872 12.4631 0.429872 12.4176 0.429872 12.3721C0.429872 11.6363 0.432628 10.9004 0.427401 10.1646C0.426404 10.0269 0.480045 9.92579 0.564189 9.82593C0.600061 9.78331 0.611891 9.7209 0.634697 9.66751C0.578062 9.64775 0.522426 9.6153 0.464603 9.61092C0.34682 9.60203 0.227897 9.6082 0.101562 9.6082C0.101562 9.51723 0.101562 9.43628 0.101562 9.32471C0.344112 9.33774 0.590701 9.32946 0.828689 9.37033C1.03898 9.40646 1.13795 9.67094 1.00786 9.85034C0.883471 10.0219 0.870025 10.1997 0.87126 10.3948C0.875394 11.0519 0.872828 11.709 0.872828 12.3661C0.872828 12.4122 0.872828 12.4583 0.872828 12.5104Z" fill="#522980"/>
<path fill-rule="evenodd" clip-rule="evenodd" d="M11.2214 12.5073C11.2214 12.4611 11.2214 12.4189 11.2214 12.3768C11.2214 11.9361 11.2228 11.4954 11.2201 11.0548C11.2196 10.9732 11.2119 10.8894 11.1916 10.8106C11.1154 10.5136 10.8751 10.3944 10.5735 10.425C10.4879 10.4337 10.4023 10.455 10.3203 10.4816C10.2425 10.507 10.1697 10.5471 10.076 10.589C10.076 10.4574 10.0731 10.3345 10.0785 10.2119C10.0795 10.1886 10.1084 10.1573 10.1324 10.1457C10.4469 9.99274 11.1219 9.97171 11.4271 10.3322C11.5836 10.5171 11.6325 10.7305 11.6367 10.9543C11.6462 11.4577 11.6394 11.9615 11.6388 12.465C11.6388 12.4763 11.6344 12.4876 11.6303 12.5074C11.502 12.5073 11.3728 12.5073 11.2214 12.5073Z" fill="#522980"/>
<path fill-rule="evenodd" clip-rule="evenodd" d="M13.834 9.78796C13.834 9.68584 13.834 9.59261 13.834 9.48975C14.4843 9.48975 15.1324 9.48975 15.7878 9.48975C15.7878 9.58838 15.7878 9.68438 15.7878 9.78796C15.1382 9.78796 14.4929 9.78796 13.834 9.78796Z" fill="#522980"/>
<path fill-rule="evenodd" clip-rule="evenodd" d="M20.1174 9.77006C20.1116 9.47651 20.237 9.3411 20.5124 9.33531C20.6382 9.33263 20.7641 9.33484 20.8972 9.33484C20.8972 9.42995 20.8972 9.51367 20.8972 9.61489C20.8133 9.61489 20.7304 9.59862 20.6588 9.61988C20.598 9.63799 20.5504 9.69932 20.4969 9.74156C20.5031 9.75106 20.5093 9.76051 20.5155 9.77002C20.3858 9.77006 20.2562 9.77006 20.1174 9.77006Z" fill="#522980"/>
<path d="M24.6728 11.3289C25.5223 11.7201 26.3686 12.1181 27.217 12.5116C27.2617 12.5323 27.3163 12.5398 27.3663 12.5399C28.0109 12.5418 28.6556 12.5388 29.3003 12.5435C29.4081 12.5443 29.4339 12.5091 29.4331 12.4078C29.4288 11.8484 29.4312 11.289 29.4307 10.7295C29.4307 10.6998 29.4255 10.67 29.4212 10.624C29.3707 10.647 29.3327 10.6654 29.2938 10.6819C28.6998 10.9336 28.0973 11.146 27.4335 11.062C27.1755 11.0293 26.9423 10.9389 26.7518 10.7576C26.4193 10.4412 26.3171 10.0294 26.3093 9.59897C26.3028 9.23989 26.336 8.87804 26.3794 8.5207C26.4307 8.0993 26.5388 7.68895 26.7202 7.30099C27.2145 6.24375 27.9237 5.34008 28.7714 4.54337C29.0516 4.28006 29.3829 4.07014 29.6905 3.83528C29.7665 3.77724 29.8396 3.77625 29.9177 3.83359C30.163 4.0136 30.4233 4.17616 30.6534 4.37334C31.2513 4.88575 31.7599 5.4803 32.2088 6.1231C32.6582 6.7667 33.0387 7.44422 33.1833 8.22762C33.289 8.80001 33.3754 9.37385 33.264 9.95523C33.1141 10.737 32.6505 11.0652 31.9356 11.0846C31.5844 11.0941 31.2424 11.0183 30.9111 10.9063C30.6723 10.8255 30.4384 10.7303 30.1889 10.6365C30.1872 10.6703 30.1851 10.6935 30.1851 10.7168C30.1849 11.2762 30.1891 11.8356 30.1818 12.395C30.1802 12.5206 30.2228 12.5445 30.3386 12.5436C30.9634 12.5385 31.5882 12.5431 32.2129 12.5387C32.293 12.5382 32.3792 12.5182 32.4519 12.4847C33.2721 12.1059 34.0901 11.7226 34.909 11.3407C35.0753 11.2632 35.0748 11.2639 35.0297 11.0891C34.5731 9.32023 34.1171 7.55123 33.6583 5.78288C33.6425 5.72207 33.6087 5.65697 33.5637 5.61393C33.378 5.43632 33.1851 5.26605 32.9941 5.09389C32.6327 4.76812 32.2711 4.44239 31.9088 4.1176C31.4258 3.68458 30.9417 3.25264 30.4585 2.81986C30.2669 2.64831 30.0752 2.47682 29.8858 2.30288C29.8228 2.24502 29.7766 2.24794 29.7166 2.31078C29.6376 2.39342 29.5472 2.46525 29.462 2.54215C29.0832 2.88411 28.7052 3.22696 28.3257 3.56812C27.9226 3.93044 27.5186 4.29159 27.1143 4.6525C26.8193 4.91595 26.5199 5.17479 26.2288 5.44239C26.1124 5.54939 25.9808 5.6405 25.9363 5.81572C25.4862 7.58218 25.0303 9.34714 24.5717 11.1115C24.5421 11.2252 24.5634 11.2786 24.6728 11.3289Z" fill="#E3A635"/>
<path d="M23.0029 0.713379C23.0029 5.16545 23.0029 9.6036 23.0029 14.0471C27.543 14.0471 32.0764 14.0471 36.6111 14.0471C36.6111 9.59805 36.6111 5.15713 36.6111 0.713379C32.0716 0.713379 27.5411 0.713379 23.0029 0.713379ZM34.9094 11.3405C34.0906 11.7224 33.2725 12.1057 32.4523 12.4845C32.3796 12.518 32.2934 12.538 32.2133 12.5385C31.5886 12.5429 30.9638 12.5382 30.339 12.5434C30.2232 12.5443 30.1806 12.5203 30.1822 12.3948C30.1895 11.8354 30.1853 11.276 30.1855 10.7165C30.1855 10.6933 30.1876 10.6701 30.1893 10.6363C30.4388 10.7301 30.6727 10.8253 30.9115 10.906C31.2429 11.018 31.5849 11.0939 31.936 11.0844C32.6509 11.065 33.1145 10.7368 33.2644 9.95501C33.3758 9.37364 33.2894 8.79974 33.1837 8.2274C33.0391 7.44405 32.6586 6.76649 32.2092 6.12288C31.7603 5.48008 31.2517 4.88549 30.6538 4.37312C30.4237 4.17594 30.1634 4.01338 29.9181 3.83337C29.8399 3.77603 29.7669 3.77702 29.6909 3.83507C29.3833 4.06992 29.052 4.27984 28.7719 4.54316C27.9241 5.33986 27.2149 6.24353 26.7207 7.30078C26.5393 7.68874 26.4311 8.09909 26.3799 8.52049C26.3364 8.87782 26.3032 9.23968 26.3097 9.59876C26.3175 10.0291 26.4197 10.4409 26.7523 10.7574C26.9427 10.9386 27.1759 11.029 27.434 11.0618C28.0978 11.1458 28.7002 10.9334 29.2943 10.6816C29.3331 10.6652 29.3711 10.6468 29.4216 10.6238C29.426 10.6699 29.4311 10.6996 29.4311 10.7293C29.4316 11.2887 29.4292 11.8482 29.4336 12.4076C29.4344 12.5089 29.4086 12.544 29.3007 12.5433C28.656 12.5385 28.0113 12.5416 27.3667 12.5397C27.3167 12.5396 27.2621 12.5321 27.2174 12.5114C26.3691 12.1179 25.5227 11.7199 24.6732 11.3287C24.5638 11.2783 24.5425 11.225 24.572 11.1113C25.0306 9.34697 25.4865 7.58201 25.9366 5.81555C25.9811 5.64033 26.1127 5.54922 26.2291 5.44222C26.5203 5.17462 26.8196 4.91573 27.1146 4.65233C27.519 4.29142 27.923 3.93022 28.326 3.56794C28.7055 3.22679 29.0835 2.88394 29.4623 2.54198C29.5475 2.46512 29.6379 2.39325 29.7169 2.3106C29.777 2.24776 29.8232 2.2448 29.8862 2.3027C30.0755 2.47664 30.2672 2.64809 30.4588 2.81968C30.942 3.25247 31.4261 3.68441 31.9091 4.11743C32.2715 4.44221 32.6329 4.76794 32.9944 5.09372C33.1854 5.26588 33.3784 5.43615 33.564 5.61376C33.609 5.6568 33.6428 5.7219 33.6586 5.78271C34.1174 7.55106 34.5734 9.32006 35.03 11.089C35.0752 11.2637 35.0757 11.263 34.9094 11.3405Z" fill="#522980"/>
</svg>
