<svg width="35" height="10" viewBox="0 0 35 10" fill="none" xmlns="http://www.w3.org/2000/svg">
<g clip-path="url(#clip0)">
<path d="M15.1663 9.8558H12.3311L14.1044 0.175537H16.9395L15.1663 9.8558Z" fill="#00579F"/>
<path d="M25.4444 0.412127C24.8852 0.216261 23.9982 0 22.9014 0C20.1015 0 18.1299 1.3181 18.1178 3.20257C18.0945 4.59294 19.5294 5.36518 20.6026 5.82877C21.6995 6.30249 22.0724 6.61169 22.0724 7.03395C22.0612 7.68246 21.186 7.98139 20.3697 7.98139C19.2378 7.98139 18.6313 7.82727 17.7095 7.46647L17.3362 7.3118L16.9395 9.48481C17.6044 9.75226 18.8296 9.9896 20.1015 10C23.0764 10 25.0132 8.7023 25.0362 6.69409C25.0475 5.59212 24.2898 4.74774 22.6563 4.05776C21.6646 3.61484 21.0573 3.31618 21.0573 2.86299C21.069 2.451 21.571 2.02902 22.6904 2.02902C23.6121 2.00835 24.2893 2.20394 24.8024 2.39967L25.0588 2.50246L25.4444 0.412127Z" fill="#00579F"/>
<path d="M29.2128 6.42643C29.4463 5.87031 30.3447 3.71797 30.3447 3.71797C30.3329 3.73864 30.5777 3.15159 30.7178 2.7912L30.9159 3.62531C30.9159 3.62531 31.4528 5.94244 31.5694 6.42643C31.1263 6.42643 29.7728 6.42643 29.2128 6.42643ZM32.7125 0.175537H30.5195C29.8432 0.175537 29.3294 0.350462 29.0376 0.978713L24.8262 9.85567H27.8011C27.8011 9.85567 28.2909 8.66089 28.3962 8.40357C28.7225 8.40357 31.6165 8.40357 32.0364 8.40357C32.1178 8.74343 32.3747 9.85567 32.3747 9.85567H34.9998L32.7125 0.175537Z" fill="#00579F"/>
<path d="M9.96384 0.175537L7.1872 6.77655L6.88378 5.43779C6.37044 3.89303 4.76049 2.21468 2.96387 1.38016L5.50717 9.84554H8.50536L12.9619 0.175537H9.96384Z" fill="#00579F"/>
<path d="M4.6083 0.175537H0.0466673L0 0.37113C3.55836 1.17444 5.91499 3.1108 6.88322 5.4382L5.89158 0.989252C5.72832 0.370993 5.22661 0.195931 4.6083 0.175537Z" fill="#FAA61A"/>
</g>
<defs>
<clipPath id="clip0">
<rect width="35" height="10" fill="white"/>
</clipPath>
</defs>
</svg>
